<mxfile host="65bd71144e">
    <diagram id="fu1i4JQY3wWvX0m9sszA" name="ページ1">
        <mxGraphModel dx="929" dy="1480" grid="1" gridSize="10" guides="1" tooltips="1" connect="1" arrows="1" fold="1" page="1" pageScale="1" pageWidth="827" pageHeight="1169" math="0" shadow="0">
            <root>
                <mxCell id="0"/>
                <mxCell id="1" parent="0"/>
                <mxCell id="22" style="edgeStyle=orthogonalEdgeStyle;rounded=0;orthogonalLoop=1;jettySize=auto;html=1;entryX=0;entryY=0.5;entryDx=0;entryDy=0;" parent="1" source="23" target="25" edge="1">
                    <mxGeometry relative="1" as="geometry"/>
                </mxCell>
                <mxCell id="23" value="" style="points=[[0.35,0,0],[0.98,0.51,0],[1,0.71,0],[0.67,1,0],[0,0.795,0],[0,0.65,0]];verticalLabelPosition=bottom;sketch=0;html=1;verticalAlign=top;aspect=fixed;align=center;pointerEvents=1;shape=mxgraph.cisco19.user;fillColor=#005073;strokeColor=none;" parent="1" vertex="1">
                    <mxGeometry x="80" y="250" width="70" height="70" as="geometry"/>
                </mxCell>
                <mxCell id="24" style="edgeStyle=orthogonalEdgeStyle;rounded=0;orthogonalLoop=1;jettySize=auto;html=1;exitX=1;exitY=0.5;exitDx=0;exitDy=0;" parent="1" source="25" target="28" edge="1">
                    <mxGeometry relative="1" as="geometry"/>
                </mxCell>
                <mxCell id="25" value="&lt;b&gt;W&lt;/b&gt;&lt;b style=&quot;background-color: initial;&quot;&gt;e&lt;/b&gt;&lt;b style=&quot;background-color: initial;&quot;&gt;b&lt;/b&gt;&lt;b style=&quot;background-color: initial;&quot;&gt;ブ&lt;/b&gt;&lt;b style=&quot;background-color: initial;&quot;&gt;ラ&lt;/b&gt;&lt;b style=&quot;background-color: initial;&quot;&gt;ウ&lt;/b&gt;&lt;b style=&quot;background-color: initial;&quot;&gt;ザ&lt;/b&gt;" style="rounded=0;whiteSpace=wrap;html=1;" parent="1" vertex="1">
                    <mxGeometry x="210" y="257.5" width="130" height="55" as="geometry"/>
                </mxCell>
                <mxCell id="26" style="edgeStyle=orthogonalEdgeStyle;rounded=0;orthogonalLoop=1;jettySize=auto;html=1;exitX=1;exitY=0.5;exitDx=0;exitDy=0;entryX=0;entryY=0.5;entryDx=0;entryDy=0;" parent="1" source="28" target="32" edge="1">
                    <mxGeometry relative="1" as="geometry">
                        <mxPoint x="569.9999999999999" y="285" as="targetPoint"/>
                    </mxGeometry>
                </mxCell>
                <mxCell id="27" style="edgeStyle=orthogonalEdgeStyle;rounded=0;orthogonalLoop=1;jettySize=auto;html=1;exitX=0;exitY=0.75;exitDx=0;exitDy=0;entryX=1;entryY=0.75;entryDx=0;entryDy=0;" parent="1" source="28" target="25" edge="1">
                    <mxGeometry relative="1" as="geometry"/>
                </mxCell>
                <mxCell id="28" value="&lt;b&gt;W&lt;/b&gt;&lt;b style=&quot;background-color: initial;&quot;&gt;e&lt;/b&gt;&lt;b style=&quot;background-color: initial;&quot;&gt;bサーバ&lt;br&gt;(PHP-FPM)&lt;br&gt;&lt;/b&gt;" style="rounded=0;whiteSpace=wrap;html=1;" parent="1" vertex="1">
                    <mxGeometry x="390" y="257.5" width="130" height="55" as="geometry"/>
                </mxCell>
                <mxCell id="29" style="edgeStyle=orthogonalEdgeStyle;rounded=0;orthogonalLoop=1;jettySize=auto;html=1;exitX=-0.013;exitY=0.639;exitDx=0;exitDy=0;entryX=1;entryY=0.75;entryDx=0;entryDy=0;exitPerimeter=0;" parent="1" source="32" target="28" edge="1">
                    <mxGeometry relative="1" as="geometry">
                        <mxPoint x="569.9999999999999" y="298.75" as="sourcePoint"/>
                    </mxGeometry>
                </mxCell>
                <mxCell id="32" value="&lt;b&gt;Laravelアプリケーション&lt;/b&gt;" style="rounded=0;whiteSpace=wrap;html=1;" parent="1" vertex="1">
                    <mxGeometry x="590" y="237.5" width="180" height="95" as="geometry"/>
                </mxCell>
                <mxCell id="33" style="edgeStyle=orthogonalEdgeStyle;rounded=0;orthogonalLoop=1;jettySize=auto;html=1;exitX=0;exitY=0.85;exitDx=0;exitDy=0;exitPerimeter=0;entryX=1;entryY=0.75;entryDx=0;entryDy=0;" parent="1" source="34" target="32" edge="1">
                    <mxGeometry relative="1" as="geometry"/>
                </mxCell>
                <mxCell id="34" value="&lt;div style=&quot;text-align: justify;&quot;&gt;&lt;b style=&quot;background-color: initial;&quot;&gt;&lt;br&gt;&lt;/b&gt;&lt;/div&gt;&lt;div style=&quot;text-align: justify;&quot;&gt;&lt;b style=&quot;background-color: initial;&quot;&gt;DB&lt;/b&gt;&lt;/div&gt;" style="strokeWidth=2;html=1;shape=mxgraph.flowchart.database;whiteSpace=wrap;" parent="1" vertex="1">
                    <mxGeometry x="850" y="250" width="70" height="70" as="geometry"/>
                </mxCell>
                <mxCell id="36" style="edgeStyle=orthogonalEdgeStyle;rounded=0;orthogonalLoop=1;jettySize=auto;html=1;exitX=1;exitY=0.5;exitDx=0;exitDy=0;entryX=0;entryY=0.5;entryDx=0;entryDy=0;entryPerimeter=0;" parent="1" source="32" target="34" edge="1">
                    <mxGeometry relative="1" as="geometry"/>
                </mxCell>
                <mxCell id="37" style="edgeStyle=orthogonalEdgeStyle;rounded=0;orthogonalLoop=1;jettySize=auto;html=1;exitX=0;exitY=0.75;exitDx=0;exitDy=0;entryX=1;entryY=0.71;entryDx=0;entryDy=0;entryPerimeter=0;" parent="1" source="25" target="23" edge="1">
                    <mxGeometry relative="1" as="geometry"/>
                </mxCell>
                <mxCell id="41" value="" style="shape=image;verticalLabelPosition=bottom;labelBackgroundColor=default;verticalAlign=top;aspect=fixed;imageAspect=0;image=data:image/webp,UklGRqAXAABXRUJQVlA4TJQXAAAv/8F/ECq8z/+vtxznX3e/0njnnu+5s9fMXmZmZmZmZmbGuef3hc+n+2rDzJwYrgPTGqplZqrCzMyuxhqdMDMfBSyFk9HSdNEJLfPuyFStu+Dydny6MHO3Eo103YSudSyF0TcMV9fLcHW6U4TxL5gNWFoMczKnWx47WDKMy9t4pOvC1cINmHpLs7z7B/COyzBOtZVLt1OHk9uGseTEuHQnsFCeavHKOsVIN7DMNwVOFclY3XCmDHOmmnJGupFHbqcNVr5h5ky10DGGOTfMn8WRvuHEUPkErLFGrpapm8UwM951G7IosAJAAKpel21dtuuQbdu2bdu2bdtzzTXbtq2Pm4Tbtk29yf+pe8f3ztr3fWlj20lt27Zt27Zt27Ztd8gBA4AAm6k2Ztu2beu1bdu2bZ62bdu2zUyAVvlFiEkYgSo2zGW4yPCFAcM7Gw7a0M8mTKVx3s6aMHaTFifDD4YpjYuLRrgIKsjYIVq802yse2PikiAbE8QxzGT4S0soww071cC0KC7Aw/CRCifDlkiRTGhWhuEaFWaGX6EIFoliTJDNRlspGm30nLF2jYlJhF5bYpiQTNHLcNaG0rjltVMzhlcU7Qz/7djE+PSIZUOF1ZFDMnyzYUQBCkEqu0haRqvIYRme+N0IFcWFhvPJkYvb+QLY5LZRU4ZH5OAM/3yjZ8lRySYownCMLMjYB4b+EdKD0OivGS0MkDXtuM2oDg41plKgh+ETWdeOPUwkNwLZUZfRPbI0w++sKC4eeezIydhOsnyaZ8yKEyNOAYoNZRAPGa7bqDrWJOYyvCFe5tRFGUaVbbhCHE0ONS2MQJeCLGsScZbhWa4XVeziwsMMP4m/jM7YqRSeeO3UjOElcdmVVFA0HZIwFLfhBHF7t+FmxQUjSARL43MRzxke+7EjJbU14j3DgQhBftTIZHhAAgz4CvHJ0IKhkJ0OkyD/ODUBJY4XyiBxMtw6ET5EcQGeSiTW+peMDGUYrpNwGX6HorgoRIgUZmfYRkJmeOvJQ4JI0ZiYZBK1HecZXw4DvH6G1yTyHJsgI/jZWUWGSyR4hu8x5UGvoGg6H0ngEXO9YDc6VcPC+SSHDKdrwZzbz/CCpNGV9E4AZ+eLMnacpJLha7gOsP21z0WyuUs/pN1YKsNnklGG/ZEsH5hlMtwnSQ34PgbE9jQaSSzD+9QE8NpRKIPk9t8jBbVhq7aH4SPJb/0IlguwyjC6SlK8ttDtAtVL5ZA0f7cnD6AaFxcdMwjJ9Ej9Q5PXX4VkO+fVQCmSyq+OJHzjMeXBqIbPRXLO8NTvBqGU8MZJ3j+P8SXhxx3L8JCk3uWzi6QAnkhWmOEoSX/NcB3AieJSZgVIBRnuxEJNbU8lUkVG+04JMpkMd0khA74IsUnBxUY5GHaQYm4lNQFUClBsiOEPqee/M1YLThIZa/e0pKb1rx5IOmO4TMq6ttDtAoidsiSR0n63Jw84qoYHIdVlOBchKAsZbv8qSYVzCiEDWERQMRtOkCJvPGZ/IFGIUvtcpM7n8bvB4cZSWyO1ZjgVwUoAQ+Z9kXK7fOsChFey02FS8prh0kCwo1AGqfrDxkJAFBfgYfhIKr8ZG+VVvjIM10jxT5/VpdJFCrN3RwC4FU+isi0/Jplg8AlsqKlmXn8VgsOcCD6zgn1IQwLFtYXKKtZpfASOW2esXZ5CVQ3nE0T+s52VUSV3bHWCypxPUaJ+lkeAuduY/SnPX2cFCDY797uVJsHTBcEnw8kXUZjM3yEQDfgOrCjXwdhOAtPWwqUVpADFhjIIUoeKVY0oLiC3GEErw95CfB6lKLMWAtjTZx1PGQqyrEkEtGmeRCXYX3gQgtsnuF7589qp2bAEuzl1JW+DmyXwTQ6VlbgaPhdB8NZzvZKWktoaQfFGL17KMpdIgOxK+hTpeiWGIwTMuw3fmFQdL5RB8Ny53y1NtT2VCKaL70mSMtshsA74DixBa7JjO4F2a+HSkrP80OkJuoeKlZnE3KclCK//r9JiE1RqSEDO8DvreFLSVxIBeponTzqqhvMJ1hmun1su3P5VErzn1JWIdR+WQD45VFYSHsrnIqg/Yq5XAm4stQuC/Le3obTwMvdGwO9KKiiaTmh9jkYIuNtwHWHtKJRBOLhLv1tItT0MHwkPBzyUgMrcO6FiwPcxgnmpHELHP04tLZDGxUXHDEIY+V0nEoXXX4Wwsv4lC+HgqyPEXFtoS9yr4XMRbqZ58riWEs4n/GS4fm5+uWOrE47mvBqnKj8+oWlyqDyHXjkrQJh6RMbaeTlTh9HA1ghbD1uZK5GC2vdFCHt6O8Z4+WHDYBfhbFIiL2ysD6EtwzxOnDNDSPYAr9lk2cZWqLkJNxpgEm1HKjG53lNMvt80k2g30gTr9jGuMu2NMaieJmIlkrpCkWM1G5il1Zx1jbNkW+Mq3c6YczcyptCGXo+FEzERY/W54B6JhNtiukITaTrIdOavN9frdy3kzy8LD/tv8Z7vy9dme/Scac9Z6/5bylhCwlpMX2RiLYaa7sKNZnvsvKWbxbmQXz/N7dYDM1y90yTbj9JK1nICaiePBw9Pgm05S5kpj5hrHvefMIV5/u/em+mWA0o0lzyHTLWao46pjFmoP1MY5377oSkNna2FtIVEQ4wa8oBhhVAKRYpVYs6XbjHRO5crt0151HxjzFWPHAXHU7Gz2Rw+wxTuhf3314w37DXGoHoEw7CWB78jkDFErW3SXceb97OXFh72nwP2ULH5VHnkZyx5G5v9yUtMdC78/39mtG631xNKdQ6UDohjQg36me/rt4yDLvSfP350rAWakpuo6PGmPXcdp4nmBX75YlKdxwoKxHVj1rtdEmUzSTLNdOtBxpG7bVtixhhUz9zvPLTwsP8ccKab92sidhJx0I6sV4BiRTH+mj3N/8NHxrGd7beQpoCsjLdKVwv69o1xyLnffaSUOA4sS5PtOcktGodf8I/vJtN9gnQpufCF/fuXcdClvyIspE9z+krGkrM7cVFVCZlww/56MQ47//cftJy5FCSkz2jNLsaiI0+oXl/SMY4SbVQwDjyvR880kzQLIEx79hrGutOYukJkxCi5aD51vvUZh57D2auKgMEkO45hrDzrQ6dtRybSZ3/qMuPgU5u4BBSMOU8jn2Qps4/Xk4jJ9JjIOLrzZmGgUJRa5nbzPmPxeT15oao0DLmg7984nOmpCAhMeeQ8xvLzefFaVVn4Z2PBR4KA5lPmWvDPH6xn1tZShmJysJ+F/v3NChcUFTMBAEx3wQaGhy/aXIpcUjDVcYsYS06+71TqN+RCfv/CBXPmJuMmk4Ajrc8aL2oP7ylfB4aTsz1+Xor4bthYdDwVOlG94DzuPcYLM6O1uwSFN70lm1mlfdUbU2hDhp9THDKb6ILze/OOVRbw6bPICCHFm+LgWTjinFD9fgQ3rLHsehVvNkfO4ojpe0whDYhtIo0Hss7k+0+ndsEFfv6MJ2bpPqFNdexC1mlf7UoZvs7x3DXlRNa+dc6sduMs1RZnzDaCApvDmSusM8+HT6ndhfPGdCCwnoDmt7njfClxzfvpC0CTyh3Td/fCmt/b94BmFfwx83n+SrOBWUS1PjQwc7pwwxiixcE+M5ONewWxz3SAfs5rxj6z5baxzyzdh33mJu4G+8xMNu0TxD4zxaGzoZ/zmrHPxLeNfWbpPuwzc7p4U0fYZ/YQxD4zpWFzoJ/zmrHPxI8lXxPYZ5buwz7zex1hn+kjiH3mtOjnvELsM/Ffi31mvq/eKIp95vc6wj7TRzr2mSkNnwv9nFeIfSZ+LPmbwj5Tryj2md/rCPtMH+nYZ6Y8Yi70c54U+0z8G2GfqVcU+8wpO8I+00c69pmu0M95Uuwz8W+EfaZeUewzp+wI+8x9p2OfWQX6OY+FfSb+jbDP1CuKfeaUHWGfue907DOrQD/nsVAnngcm/o0wZ+KthuGCqTcq4hRtnwvmlB0hTrm/4oK5AnuAhzc05MG5YKYyegHEoTEF11eZC+ZYiEMPeotciE9GHOqAC+bNR0Wc4AxX7cAFM+fLt0TFiIc3lDL705dxwcxi91FxeEONDs4F812IQ2MMqqcyF8zEWw2DODT+Gj3cIhc+aexFW0IcmuKgmbhg1lcKcYIzWLkdF8xcb9zzjnhDKY/LBbOCOLyhZhJn+EIumKMjDrWSrcIquWAm3no4xKGP7IULnzT2Yq0gDl0ZF8z6SiEOPTUXTLV3RJwi3XLBzGLPMXF4Q00lSNMfF0zPiEMrfQYumB0hDp2jFy5kPwvi0CtzwayvFOLQG3PBVNsO4izpOblgjhuHN9RU/FT9ccH0jDh0Vc/ABbMjxKFxl++oFy5kPwvi0GR7TcYFc0G3iTj01lww1baDOEt6Dy6Y48bhDQ39PVwwUx2/GOJQ1wv49BkXzMTbjIA4NO5yHVTgQvY4ireGOHTHXDAXdJuIQ//MBVNtO4izpPfhgpnl3uPi8IaaipfiZ7lgpjZhCcShritywawRcWhcZTuowIXsbSMOfQYXzAXdJuLQurhgjrwdxFnSrA+exgXzTXF4Qxd9HVwwv4g41FKmEgv4+AkXTAnEodeuwIXsbSMOjcYFc0ENEIemPXsNLpgjbwdx4lbABfNNcXhD71iNC2bqk5ZCHCq1Pi6YEohD7/xJXMjuEHEonQvmghogDk1zxipcMEfeDuLEzWLXEVwws9x3Qhze0DuemQvmBxCH9vrkXDAlEIfGXqSlT+JCdoeIQxfOBXNBDRCHpjFtBS6YIzcZJwnixM185xFcMGlxeEP9zvXaXVwwU5+8DOLQfp6cC+bbEIfGVriFq+ZCdoeIQxNtPgQXTK0GiEMDccH0dE+IYw/wZr7jMC6YtM3iDfU7l6t3cMFMY8pyiEP7md+bd7hgvg1xaL1XzYXsDhGHJtpsMC6YWg0Qh36RC6ane0Kc9JltP4QLJm2zeEPfvQ8umB0iDn3Om3PBDIM4NNaCzVw1F7JvFnHo/rlgag2LONQzF0xP94Q46TPbdhAXzKz2n7BZvKHvfjUumPYQhz7nzblghkEcer4F//yBC9k3izh0OCcPTK1hEYe+iwumh3tCnOCM1+/BBdPjZvGGOvo9LphNIg4VrccF5wTr9IY49LXxPDCVrxpxaEQnD6yMAdQV+gW3gX1UbjDso2YDs7wo9tHB+sY+mkDt3pzYR6dFv+AHYB+V+0TsoyFfFPvo5ypjHz2oE/toBPQLfjD2UcoFsI8aHRz76OcqYx896C1iH6WiX3AU7KOUC2AfNfpC7KMxBtUzMvbR+Kt3d4vYR1MYOAP60QxWbIN+RbrFPtrvPB88gX200lViH52jF+yjR0I/emP0W1K32EdD94d9tNJnwD76s16wj34b/eit0W9J74F9NPT3YB9d1TNgH911L9hHt4Z+NJ1566Hfkt4D++iivwf7qOuK2EePUQH7aDLdJkA/+mf0W9J/I8LriYku+mfxoF9BUdcV+fOzanda69xiuqjoMSpwZ47nr1G737bO+kjcT8SdWR04Re2Gsc7jCoza4s3Hqt1JrTOD5duIzB7eWwFnpjVrNbV7Fuv8ocio32p8WaPaXbR1xhTakNBo2Ipc6V7taG1WeYY4sdFj9MKRCimKd1yrbINEP8Uhs3HkK0jx/tAq463chfCCH8CPSXUaQ/UaOK2xviLCo3KD8aKXRqpHX2GNrkgChzw4J3ok5RvREn03nSidDNDGKvLhWdQvvZoVdkhy2PYz8OC/Sf3otS3w5K1JAn3tKq3n3CAE0CiOt0aSxuRVWu4lCQS284WO1mO6PFAr2Ss8iMWqlYMBqut0rPm9eacRyWTTCdN8haW2PMageggI6B4dKrsuyWWRt7ZQ9ngqdUFgkP6jDuS8TJLOB12fVXp5KYIDSrl9x3llktBGx7XGVZ+UIIGajJPk9h3kFp+IpDQ4kSaDrM0Ca3sjggU60igOMfKIJKvfffSrdrR+mg3MQtBAwSkOma1C9B15pSSxt/kFn+RIq5x0l3HiSKa2JAiinztlNFUYqCOS26Jt9e0wM928X7PJspFQj2e9KC5AGLSk357fm3ei4zk3RvK73+2+miPc4n0vmwRb3nqa4Z0wiMqNNq/HzxWuHv+BJHmMQfXs8EGiqd4vdk2iLaY5WFwgROn/0NaLLmE9dHCbJNMtZSqx3VnuO2GVhau/L7vrzZJ4S/Jg5UIhouCWT7rD57yOyotxiwfv9q3fZlSS7+Cwh+n5hU45v7fvLT4L/vnDmQfu+UGLkpjt1J4Hp2H4JZjF2dFeW2utCMl9yn7urfsOl939z31OvyTwreyPB9qGaWKCYoZemos3xtgFvGHsUB4ftF0kBcM1rPm542le3i7DZpxh2FuAYjVHbazl0+LLH9upi1dzdX/hQXAlwGjVgTV3C7KsSZhSfE+ay52tBUs697s1pxNzi2HIbsM3pjleO3R67HAlMT695vxyS+LGRi9eCzCzHbzYem6eFmIUF+CphBMMv0NltTCPF8pAiJwIPrMW6ivZ6TA2/DtjtbRwM+8LE7bC0D9BCziKC01l+IIFAV+XWtAP5XOhwK9Hsnxa4BFUjLHj8LdLvxa728/wAvZqhuto4Y9O1bBwPty5kk6jpbCvJKj7PDuV0tL4IQ0h7oi5Xi2RXn8VaEsOldeSufyYZFDLiRTJpCU0Upi9Ozh7p3NrSS1z7zDG8M6Tp6W1tofhI3ydPut4WmqZIC6UAVw7L8Tn0dLbZ3HIGspGTbUUZ+4NqloLl9aSnODpAqICvgNrif7rrAA4XeqLaMm2CYo8Piydx+/W0u2OrQ5HG4/Zn5bylHA+EOUUQgYt7TV8LgBiOHdhWuojqXw30MPw1pOnJd/rZ3gJOWsL3a5WwP2FBwGb+hEsl1bEgixrEsww3IoU1NYK2dla4OWPUxO0UiYy1q4YrAR8H6OVswDFhk4PKAMeSivpcktCyS79Wlkz24GQ3YbraIWN4gI8laDDlVRQNJ1W3OOFMkBjozaU1gr8SnY6DBdbz/VqNc68L5hIDpXVypyS2hpA5NTVSv1QPhcwPMH1auWOoGKHhYQ0T6JWcLd/lVBw+qwutaJXDeeDwGZslFcrfF9J6vewsVrxP6Sh2tUMl9bK7/VXUTeXb10aBJcfk6xon3dODYaRwuzdqdh5/G4NiWXuXbU2HlNeA2NtD8NHpcqxCTJqgNxRKEOZRupfA2WfxdXouz15Gi4z96Y+DL9Dt6tBM8HTheLUv2QNnn+dFVCYoU6kQbSf5anKH6eW1kDqjq2uIgHfgTWgpoTzlaP4njSw1vC5lKJzv1vD68DdqMNuwzemQdbrH1YRcj5Fg+3+woMowD9fvAbdgixrkuwV8+Rp6O1sLTLH8DtUVgNwImPtiklbfTtyaiAuQLGh00vZv9+iBuTllpSvraQmaFjObEeuAr4uNThHcQGeShL166fUIH28UIYk7dKvwfqV7kyGaobraMjOvC/ZcSW9kwbulNTWpObta2kAfyifS1qOmOvVMB5BxQ4rJ8mh8hrM3f5VSkhOXQ3qVcP5ksFw/dwa3PtKkok0T56G+A9pKAunzzqeBnqvv4oU7LwQn0cD/vJjkoU3VKwG/khh9u7EVjNcWsN/mXsXV8B3YI2CtT0MHwV1qS+i0XBHoQwBncfv1pjY52ii2XjM/jQ2Zu5NKDk/pxEywdOFMEa6MI2Uf50VEMJ3e/I0XvazPP6tLXS7GjXdsdU5V//qNXqmhPM59l2RgtoaRWv4XJz649QEjaUDd8OjgO9jNKJ6/cNyZ8BDaWTdX3gQruzSrxG2IMuaxI/dhutonL3eJ+CDy47VD6XRNpGxdsU4MNLFa9QtQLGh01sszZOnsXe5Ja10+qzjaQzObMcyv/65GomjuABPJUt07teIHMWlzMpwuI3H7E/j8ivZ6bCD5fycxufM+3KgJzi3RukUxkbu1kGq2NAhUWP1Q/lcDpAcul2N2RFU7LDRllNXI7fbv8po+byL1wheNZxf2Hbpd2sc7yup8LQWrqPx/EMaLmGnzzqwRnWvv8oSUP9zNboXoFgbjfrjxWPnNlTQKH9jsYwtXd2wW9lbSYYhTJBNqzw=;" vertex="1" parent="1">
                    <mxGeometry x="394" y="260" width="20" height="20" as="geometry"/>
                </mxCell>
                <mxCell id="42" value="" style="shape=image;verticalLabelPosition=bottom;labelBackgroundColor=default;verticalAlign=top;aspect=fixed;imageAspect=0;image=data:image/svg+xml,PHN2ZyB4bWxucz0iaHR0cDovL3d3dy53My5vcmcvMjAwMC9zdmciIHdpZHRoPSIyNDE4IiB2aWV3Qm94PSIwIC0uMTEzNzY2MDEgNDkuNzQyNDU3ODUgNTEuMzE2OTA4NTkiIGhlaWdodD0iMjUwMCI+PHBhdGggZmlsbD0iI2ZmMmQyMCIgZD0ibTQ5LjYyNiAxMS41NjRhLjgwOS44MDkgMCAwIDEgLjAyOC4yMDl2MTAuOTcyYS44LjggMCAwIDEgLS40MDIuNjk0bC05LjIwOSA1LjMwMnYxMC41MDljMCAuMjg2LS4xNTIuNTUtLjQuNjk0bC0xOS4yMjMgMTEuMDY2Yy0uMDQ0LjAyNS0uMDkyLjA0MS0uMTQuMDU4LS4wMTguMDA2LS4wMzUuMDE3LS4wNTQuMDIyYS44MDUuODA1IDAgMCAxIC0uNDEgMGMtLjAyMi0uMDA2LS4wNDItLjAxOC0uMDYzLS4wMjYtLjA0NC0uMDE2LS4wOS0uMDMtLjEzMi0uMDU0bC0xOS4yMTktMTEuMDY2YS44MDEuODAxIDAgMCAxIC0uNDAyLS42OTR2LTMyLjkxNmMwLS4wNzIuMDEtLjE0Mi4wMjgtLjIxLjAwNi0uMDIzLjAyLS4wNDQuMDI4LS4wNjcuMDE1LS4wNDIuMDI5LS4wODUuMDUxLS4xMjQuMDE1LS4wMjYuMDM3LS4wNDcuMDU1LS4wNzEuMDIzLS4wMzIuMDQ0LS4wNjUuMDcxLS4wOTMuMDIzLS4wMjMuMDUzLS4wNC4wNzktLjA2LjAyOS0uMDI0LjA1NS0uMDUuMDg4LS4wNjloLjAwMWw5LjYxLTUuNTMzYS44MDIuODAyIDAgMCAxIC44IDBsOS42MSA1LjUzM2guMDAyYy4wMzIuMDIuMDU5LjA0NS4wODguMDY4LjAyNi4wMi4wNTUuMDM4LjA3OC4wNi4wMjguMDI5LjA0OC4wNjIuMDcyLjA5NC4wMTcuMDI0LjA0LjA0NS4wNTQuMDcxLjAyMy4wNC4wMzYuMDgyLjA1Mi4xMjQuMDA4LjAyMy4wMjIuMDQ0LjAyOC4wNjhhLjgwOS44MDkgMCAwIDEgLjAyOC4yMDl2MjAuNTU5bDguMDA4LTQuNjExdi0xMC41MWMwLS4wNy4wMS0uMTQxLjAyOC0uMjA4LjAwNy0uMDI0LjAyLS4wNDUuMDI4LS4wNjguMDE2LS4wNDIuMDMtLjA4NS4wNTItLjEyNC4wMTUtLjAyNi4wMzctLjA0Ny4wNTQtLjA3MS4wMjQtLjAzMi4wNDQtLjA2NS4wNzItLjA5My4wMjMtLjAyMy4wNTItLjA0LjA3OC0uMDYuMDMtLjAyNC4wNTYtLjA1LjA4OC0uMDY5aC4wMDFsOS42MTEtNS41MzNhLjgwMS44MDEgMCAwIDEgLjggMGw5LjYxIDUuNTMzYy4wMzQuMDIuMDYuMDQ1LjA5LjA2OC4wMjUuMDIuMDU0LjAzOC4wNzcuMDYuMDI4LjAyOS4wNDguMDYyLjA3Mi4wOTQuMDE4LjAyNC4wNC4wNDUuMDU0LjA3MS4wMjMuMDM5LjAzNi4wODIuMDUyLjEyNC4wMDkuMDIzLjAyMi4wNDQuMDI4LjA2OHptLTEuNTc0IDEwLjcxOHYtOS4xMjRsLTMuMzYzIDEuOTM2LTQuNjQ2IDIuNjc1djkuMTI0bDguMDEtNC42MTF6bS05LjYxIDE2LjUwNXYtOS4xM2wtNC41NyAyLjYxLTEzLjA1IDcuNDQ4djkuMjE2em0tMzYuODQtMzEuMDY4djMxLjA2OGwxNy42MTggMTAuMTQzdi05LjIxNGwtOS4yMDQtNS4yMDktLjAwMy0uMDAyLS4wMDQtLjAwMmMtLjAzMS0uMDE4LS4wNTctLjA0NC0uMDg2LS4wNjYtLjAyNS0uMDItLjA1NC0uMDM2LS4wNzYtLjA1OGwtLjAwMi0uMDAzYy0uMDI2LS4wMjUtLjA0NC0uMDU2LS4wNjYtLjA4NC0uMDItLjAyNy0uMDQ0LS4wNS0uMDYtLjA3OGwtLjAwMS0uMDAzYy0uMDE4LS4wMy0uMDI5LS4wNjYtLjA0Mi0uMS0uMDEzLS4wMy0uMDMtLjA1OC0uMDM4LS4wOXYtLjAwMWMtLjAxLS4wMzgtLjAxMi0uMDc4LS4wMTYtLjExNy0uMDA0LS4wMy0uMDEyLS4wNi0uMDEyLS4wOXYtMjEuNDgzbC00LjY0NS0yLjY3Ni0zLjM2My0xLjkzNHptOC44MS01Ljk5NC04LjAwNyA0LjYwOSA4LjAwNSA0LjYwOSA4LjAwNi00LjYxLTguMDA2LTQuNjA4em00LjE2NCAyOC43NjQgNC42NDUtMi42NzR2LTIwLjA5NmwtMy4zNjMgMS45MzYtNC42NDYgMi42NzV2MjAuMDk2em0yNC42NjctMjMuMzI1LTguMDA2IDQuNjA5IDguMDA2IDQuNjA5IDguMDA1LTQuNjF6bS0uODAxIDEwLjYwNS00LjY0Ni0yLjY3NS0zLjM2My0xLjkzNnY5LjEyNGw0LjY0NSAyLjY3NCAzLjM2NCAxLjkzN3ptLTE4LjQyMiAyMC41NjEgMTEuNzQzLTYuNzA0IDUuODctMy4zNS04LTQuNjA2LTkuMjExIDUuMzAzLTguMzk1IDQuODMzeiIvPjwvc3ZnPg==;" vertex="1" parent="1">
                    <mxGeometry x="600" y="250" width="19.34" height="20" as="geometry"/>
                </mxCell>
            </root>
        </mxGraphModel>
    </diagram>
</mxfile>